<svg width="266" height="68" viewBox="0 0 266 68" fill="none" xmlns="http://www.w3.org/2000/svg">
<g clip-path="url(#clip0_756_1639)">
<path d="M113.527 15.4641C115.861 15.4641 117.792 17.3977 117.792 19.7304C117.792 22.0675 115.861 24.001 113.527 24.001H107.126V41.1607C107.126 43.4978 105.197 45.4329 102.861 45.4329C100.532 45.4329 98.5958 43.4978 98.5958 41.1607V14.277C98.5958 7.21539 104.33 1.47826 111.395 1.47826H113.526C115.859 1.47826 117.789 3.41183 117.789 5.74452C117.789 8.07722 115.859 10.0108 113.526 10.0108H111.395C109.061 10.0108 107.126 11.9444 107.126 14.277V15.4626L113.527 15.4641Z" fill="#E8473E"/>
<path d="M250.576 45.4683C242.069 45.4683 235.148 38.5235 235.148 29.9924C235.148 21.454 242.067 14.5136 250.576 14.5136C259.083 14.5136 266.001 21.4525 266.001 29.9924C266 38.5235 259.08 45.4683 250.576 45.4683ZM250.576 22.9426C246.712 22.9426 243.57 26.1017 243.57 29.9939C243.57 33.8788 246.712 37.0423 250.576 37.0423C254.438 37.0423 257.578 33.8788 257.578 29.9939C257.575 26.1002 254.435 22.9426 250.576 22.9426Z" fill="#E8473E"/>
<path d="M219.704 45.4683C217.383 45.4683 215.491 43.5777 215.491 41.2494V29.7042C215.491 21.1672 222.41 14.2268 230.916 14.2268C233.247 14.2268 235.129 16.116 235.129 18.4398C235.129 20.7681 233.248 22.6558 230.916 22.6558C227.059 22.6558 223.916 25.8223 223.916 29.7057V41.2509C223.914 43.5777 222.03 45.4683 219.704 45.4683Z" fill="#E8473E"/>
<path d="M195.776 45.4683C187.27 45.4683 180.345 38.5235 180.345 29.9924V18.4398C180.345 16.116 182.228 14.2312 184.558 14.2312C186.889 14.2312 188.768 16.116 188.768 18.4398V29.9939C188.768 33.8788 191.91 37.0423 195.777 37.0423C199.637 37.0423 202.779 33.8788 202.779 29.9939V18.4398C202.779 16.116 204.665 14.2312 206.995 14.2312C209.315 14.2312 211.204 16.116 211.204 18.4398V29.9939C211.203 38.5235 204.279 45.4683 195.776 45.4683Z" fill="#E8473E"/>
<path d="M137.232 45.4683C128.722 45.4683 121.806 38.5235 121.806 29.9924V18.4398C121.806 16.116 123.691 14.2312 126.015 14.2312C128.346 14.2312 130.228 16.116 130.228 18.4398V29.9939C130.228 33.8788 133.369 37.0423 137.232 37.0423C141.094 37.0423 144.233 33.8788 144.233 29.9939V18.4398C144.233 16.116 146.12 14.2312 148.45 14.2312C150.773 14.2312 152.657 16.116 152.657 18.4398V29.9939C152.659 38.5235 145.74 45.4683 137.232 45.4683Z" fill="#E8473E"/>
<path d="M89.9582 45.5201C87.6307 45.5201 85.7451 43.6353 85.7451 41.307V29.7603C85.7451 25.8725 82.6004 22.709 78.7448 22.709C74.8834 22.709 71.7417 25.8725 71.7417 29.7603V41.307C71.7417 43.6353 69.8531 45.5201 67.5315 45.5201C65.201 45.5201 63.3154 43.6353 63.3154 41.307V29.7603C63.3154 21.2219 70.2373 14.2815 78.7448 14.2815C87.2495 14.2815 94.1699 21.2234 94.1699 29.7603V41.307C94.1699 43.6397 92.2813 45.5201 89.9582 45.5201Z" fill="#E8473E"/>
<path d="M171.79 23.021C174.124 23.021 176.049 21.083 176.049 18.7503C176.049 16.4161 174.124 14.484 171.79 14.484H165.393V5.74452C165.393 3.41183 163.454 1.47826 161.127 1.47826C158.795 1.47826 156.863 3.41183 156.863 5.74452V32.6326C156.863 39.6987 162.588 45.4284 169.656 45.4284H171.789C174.122 45.4284 176.048 43.4949 176.048 41.1577C176.048 38.8265 174.122 36.8915 171.789 36.8915H169.656C167.324 36.8915 165.391 34.9638 165.391 32.6311V23.018L171.79 23.021Z" fill="#E8473E"/>
<path d="M44.6703 14.5697C38.4399 14.5697 33.4717 18.1545 30.6447 23.6344C25.0986 34.4331 21.2386 37.097 16.3087 37.097C12.4488 37.097 9.30408 33.9335 9.30408 30.0442C9.30408 26.1563 12.4473 22.9929 16.3087 22.9929C18.0629 22.9929 19.7431 23.6463 21.0317 24.8407C22.74 26.4195 25.4074 26.313 26.9842 24.5983C28.5595 22.8894 28.4517 20.2256 26.7389 18.6453C23.8897 16.017 20.182 14.5697 16.3073 14.5697C7.80266 14.5697 0.879272 21.5102 0.879272 30.0457C0.879272 38.5782 7.80266 45.523 16.3087 45.523C22.8169 45.523 27.2325 42.7158 31.3097 37.7548C33.9756 42.3877 38.9587 45.523 44.6703 45.523C53.1734 45.523 60.0938 38.5782 60.0938 30.0457C60.0923 21.5102 53.1734 14.5697 44.6703 14.5697ZM44.6703 37.0925C40.8044 37.0925 37.6641 33.932 37.6641 30.0427C37.6641 29.1557 37.837 28.3176 38.1311 27.537C38.5212 26.8703 38.9261 26.1874 39.3281 25.4897C40.6138 23.9626 42.526 22.9914 44.6703 22.9914C48.5332 22.9914 51.672 26.1534 51.672 30.0412C51.672 33.9335 48.5332 37.0925 44.6703 37.0925Z" fill="#E8473E"/>
<path d="M178.532 63.7234C177.126 63.7234 176.179 63.2681 175.561 62.8586L176.192 61.7706C176.639 62.1003 177.469 62.5275 178.483 62.5275C179.38 62.5275 180.437 62.1003 180.437 61.0729C180.437 59.3684 177.93 59.024 176.668 57.6359C176.222 57.1658 175.941 56.5627 175.941 55.7571C175.941 54.2744 177.081 53.0888 179.065 53.0888C180.166 53.0888 180.957 53.3608 181.465 53.6121L181.446 55.0017C180.813 54.604 179.98 54.3024 179.127 54.3024C178.167 54.3024 177.363 54.7031 177.363 55.6166C177.363 57.7926 181.938 57.7808 181.938 60.9339C181.935 62.6191 180.45 63.7234 178.532 63.7234Z" fill="#99999A"/>
<path d="M184.713 54.5715C185.643 53.6417 186.939 53.0873 188.437 53.0873C190.045 53.0873 191.418 53.6875 192.333 54.7164C193.165 55.661 193.644 56.9382 193.644 58.4076C193.644 59.9982 193.075 61.3715 192.111 62.3205C191.188 63.2223 189.921 63.7234 188.439 63.7234C187 63.7234 185.786 63.2681 184.872 62.4314C183.849 61.4838 183.249 60.078 183.249 58.4386C183.247 56.879 183.782 55.5368 184.713 54.5715ZM188.437 54.3527C186.196 54.3527 184.744 55.9315 184.744 58.4238C184.744 60.9162 186.197 62.495 188.437 62.495C190.675 62.495 192.13 60.9162 192.13 58.4238C192.13 56.0571 190.805 54.3527 188.437 54.3527Z" fill="#99999A"/>
<path d="M204.183 63.5682V56.5006C204.183 56.1163 204.183 55.8827 204.214 55.3934H204.196C204.028 55.8206 203.802 56.168 203.627 56.4356L201.062 60.5363H200.237L197.489 56.4237C197.32 56.1488 197.131 55.8724 196.924 55.3964H196.893C196.957 55.8857 196.957 56.1192 196.957 56.4843V63.5711H195.559V53.1716H196.929L200.087 57.8577C200.351 58.2849 200.526 58.5539 200.656 58.8318H200.684C200.817 58.5672 200.939 58.2849 201.22 57.8384L204.189 53.1686H205.59V63.5682H204.183Z" fill="#99999A"/>
<path d="M208.961 54.5715C209.89 53.6417 211.191 53.0873 212.688 53.0873C214.297 53.0873 215.667 53.6875 216.583 54.7164C217.418 55.661 217.894 56.9382 217.894 58.4076C217.894 59.9982 217.323 61.3715 216.361 62.3205C215.432 63.2223 214.17 63.7234 212.689 63.7234C211.251 63.7234 210.037 63.2681 209.122 62.4314C208.098 61.4838 207.496 60.078 207.496 58.4386C207.496 56.879 208.033 55.5368 208.961 54.5715ZM212.689 54.3527C210.446 54.3527 208.998 55.9315 208.998 58.4238C208.998 60.9162 210.446 62.495 212.689 62.495C214.928 62.495 216.378 60.9162 216.378 58.4238C216.378 56.0571 215.052 54.3527 212.689 54.3527Z" fill="#99999A"/>
<path d="M222.171 63.7234C220.767 63.7234 219.816 63.2681 219.203 62.8586L219.836 61.7706C220.279 62.1003 221.115 62.5275 222.122 62.5275C223.02 62.5275 224.077 62.1003 224.077 61.0729C224.077 59.3684 221.574 59.024 220.307 57.6359C219.865 57.1658 219.583 56.5627 219.583 55.7571C219.583 54.2744 220.721 53.0888 222.707 53.0888C223.808 53.0888 224.599 53.3608 225.104 53.6121L225.089 55.0017C224.454 54.604 223.619 54.3024 222.769 54.3024C221.81 54.3024 221.005 54.7031 221.005 55.6166C221.005 57.7926 225.577 57.7808 225.577 60.9339C225.577 62.6191 224.093 63.7234 222.171 63.7234Z" fill="#99999A"/>
<path d="M235.833 63.7234C232.676 63.7234 230.765 61.4838 230.765 58.4904C230.765 55.4717 232.914 53.0873 236.099 53.0873C237.302 53.0873 238.23 53.3741 238.767 53.6875L238.748 55.077C237.965 54.5848 237.201 54.3024 236.084 54.3024C233.731 54.3024 232.279 56.1192 232.279 58.3957C232.279 60.7462 233.684 62.4624 236.022 62.4624C236.917 62.4624 237.774 62.1949 238.499 61.8046L238.906 62.8911C237.882 63.4721 236.839 63.7234 235.833 63.7234Z" fill="#99999A"/>
<path d="M245.143 63.7234C241.988 63.7234 240.075 61.4838 240.075 58.4904C240.075 55.4717 242.221 53.0873 245.409 53.0873C246.609 53.0873 247.541 53.3741 248.079 53.6875L248.058 55.077C247.271 54.5848 246.515 54.3024 245.395 54.3024C243.044 54.3024 241.592 56.1192 241.592 58.3957C241.592 60.7462 242.991 62.4624 245.332 62.4624C246.227 62.4624 247.084 62.1949 247.806 61.8046L248.213 62.8911C247.191 63.4721 246.148 63.7234 245.143 63.7234Z" fill="#99999A"/>
<path d="M254.482 63.5682V59.024C254.482 58.1252 254.324 57.1969 253.216 57.1969C252.397 57.1969 251.655 57.7468 251.086 58.2331V63.5682H249.696V52.3955H251.086V56.9589C251.874 56.3587 252.634 55.9182 253.656 55.9182C254.745 55.9182 255.883 56.5657 255.883 58.6618V63.5726H254.479V63.5667H254.482V63.5682Z" fill="#99999A"/>
<path d="M262.576 63.7234C259.421 63.7234 257.512 61.4838 257.512 58.4904C257.512 55.4717 259.659 53.0873 262.845 53.0873C264.043 53.0873 264.976 53.3741 265.512 53.6875L265.492 55.077C264.705 54.5848 263.949 54.3024 262.829 54.3024C260.478 54.3024 259.026 56.1192 259.026 58.3957C259.026 60.7462 260.432 62.4624 262.77 62.4624C263.664 62.4624 264.521 62.1949 265.245 61.8046L265.654 62.8911C264.624 63.4721 263.582 63.7234 262.576 63.7234Z" fill="#99999A"/>
</g>
<defs>
<clipPath id="clip0_756_1639">
<rect width="266" height="68" fill="white"/>
</clipPath>
</defs>
</svg>
